<?xml version="1.0" standalone="no"?>
<!DOCTYPE svg PUBLIC "-//W3C//DTD SVG 20010904//EN"
 "http://www.w3.org/TR/2001/REC-SVG-20010904/DTD/svg10.dtd">
<svg version="1.0" xmlns="http://www.w3.org/2000/svg"
 width="604.000000pt" height="805.000000pt" viewBox="0 0 604.000000 805.000000"
 preserveAspectRatio="xMidYMid meet">

<g transform="translate(0.000000,805.000000) scale(0.100000,-0.100000)"
fill="#000000" stroke="none">
<path d="M3328 6133 c7 -3 16 -2 19 1 4 3 -2 6 -13 5 -11 0 -14 -3 -6 -6z"/>
<path d="M3231 6086 c-7 -13 -16 -47 -19 -77 -6 -44 -4 -57 11 -71 9 -10 17
-30 17 -45 0 -33 -10 -24 -21 19 -7 28 -8 26 -4 -14 3 -29 1 -48 -5 -48 -6 0
-8 -12 -4 -27 3 -16 2 -23 -3 -17 -4 6 -17 14 -28 18 -16 6 -17 9 -5 16 11 7
6 10 -20 11 -61 2 -93 8 -103 18 -6 6 -16 7 -27 1 -14 -7 -19 -5 -23 12 -5 17
-11 20 -39 15 -18 -3 -46 -10 -63 -17 -16 -6 -32 -11 -34 -10 -2 1 -7 -3 -10
-8 -3 -6 -13 -12 -20 -14 -8 -2 -22 -11 -32 -20 -10 -9 -37 -22 -61 -28 -112
-29 -226 -80 -260 -118 -21 -23 -19 -22 17 5 43 32 91 55 68 32 -17 -17 -16
-30 1 -23 8 3 13 14 11 25 -2 11 1 19 8 17 7 -1 22 4 35 10 12 7 33 12 45 10
13 -2 21 2 19 10 -1 6 7 12 18 12 34 0 11 -28 -38 -47 -26 -9 -62 -26 -80 -36
-18 -11 -35 -17 -38 -14 -6 6 -50 -32 -135 -117 -68 -69 -79 -75 -58 -33 11
21 10 21 -6 5 -10 -9 -19 -27 -20 -40 -4 -38 -5 -39 -15 -33 -5 3 -21 -17 -34
-44 -14 -27 -29 -51 -33 -53 -13 -5 -90 -129 -107 -171 -8 -20 -22 -40 -30
-43 -16 -6 -49 -81 -41 -94 2 -4 -3 -14 -13 -21 -15 -13 -16 -12 -3 4 19 25 4
21 -22 -5 -12 -13 -18 -20 -13 -15 20 15 28 6 11 -13 -10 -11 -22 -17 -26 -14
-5 3 -6 -1 -4 -8 5 -12 -32 -92 -99 -217 -10 -20 -21 -58 -24 -86 -4 -37 -7
-45 -13 -30 -4 11 -6 -9 -4 -45 3 -43 1 -58 -5 -45 -7 16 -9 17 -9 3 -1 -9 4
-20 10 -24 7 -4 8 -21 5 -43 -5 -26 -4 -32 3 -21 9 12 11 9 11 -13 0 -16 -3
-26 -7 -24 -5 3 -8 -25 -9 -61 0 -41 1 -49 3 -22 5 50 23 81 23 38 0 -15 3
-35 6 -45 5 -15 4 -16 -6 -3 -9 12 -10 -2 -6 -62 3 -42 10 -87 15 -100 5 -12
12 -40 16 -60 3 -21 12 -43 19 -50 7 -7 17 -22 24 -33 11 -19 11 -19 12 5 1
23 2 23 15 -7 8 -18 19 -33 24 -33 13 0 25 -62 24 -130 -1 -30 4 -63 9 -74 6
-10 6 -16 1 -13 -6 4 -10 -13 -11 -36 0 -23 -3 -61 -7 -84 -4 -31 -1 -49 14
-73 l19 -33 5 29 c4 29 4 29 6 3 0 -15 8 -30 17 -33 13 -5 15 -2 11 14 -4 17
-3 19 9 9 8 -6 14 -17 14 -24 0 -6 20 -33 45 -59 25 -27 45 -52 45 -57 0 -6
25 -36 57 -67 57 -57 99 -132 89 -157 -3 -8 0 -12 7 -9 7 2 20 -10 30 -27 17
-30 17 -31 -17 -92 -18 -34 -42 -84 -51 -112 -10 -27 -21 -53 -25 -58 -4 -4
-71 -30 -151 -58 -132 -46 -184 -67 -367 -150 -34 -16 -173 -58 -308 -94 -250
-66 -335 -98 -413 -157 -24 -18 -79 -58 -122 -88 -43 -30 -140 -116 -216 -190
-128 -125 -141 -141 -170 -210 -62 -151 -106 -333 -104 -430 1 -23 -2 -31 -7
-22 -17 26 -69 -240 -117 -600 -13 -101 -38 -282 -55 -403 -29 -209 -60 -470
-60 -507 0 -17 146 -18 2920 -18 l2920 0 0 245 c0 224 -3 260 -29 422 -62 370
-93 533 -136 703 -68 264 -90 331 -127 375 -19 22 -46 57 -61 77 -31 42 -262
270 -322 319 -103 83 -232 151 -465 245 -180 73 -432 196 -526 257 -65 42
-187 98 -277 127 -20 6 -42 21 -48 33 -6 12 -24 36 -39 52 -54 58 -63 146 -18
161 40 12 90 67 119 131 16 34 38 67 49 73 24 13 98 138 106 179 4 17 16 37
28 45 22 14 38 46 71 139 17 47 35 62 35 30 1 -24 67 115 91 189 10 33 25 71
32 86 81 162 95 220 73 316 -7 30 -11 73 -9 93 9 64 4 130 -11 185 -8 29 -18
79 -22 112 -4 33 -10 53 -14 46 -4 -7 -8 15 -9 49 0 33 -7 74 -16 91 -21 40
-19 48 5 20 l20 -23 0 24 c0 53 -112 300 -187 410 -16 24 -35 60 -43 79 -19
51 -69 150 -75 150 -3 0 4 -18 15 -40 30 -59 24 -71 -10 -20 -17 25 -36 44
-43 42 -6 -2 -9 -1 -5 3 8 9 -136 173 -172 196 -14 9 -33 26 -42 38 -19 23
-43 29 -33 9 4 -7 -4 -1 -17 14 -23 27 -100 67 -129 68 -10 0 -20 11 -23 25
-4 14 -10 23 -15 21 -5 -3 -16 3 -26 14 -10 11 -24 20 -31 20 -7 0 -29 19 -49
43 -20 23 -34 35 -29 27 4 -8 14 -24 23 -34 9 -10 12 -17 6 -14 -5 2 -30 14
-55 25 -44 21 -131 34 -218 33 -29 -1 -44 4 -48 14 -8 20 -43 15 -60 -8 -12
-16 -14 -15 -28 13 -18 34 -21 123 -5 153 6 11 9 22 6 24 -2 2 -9 -7 -16 -20z
m-241 -207 c0 -6 -7 -8 -16 -5 -8 3 -12 2 -9 -4 4 -6 -7 -10 -26 -10 -31 0
-32 1 -13 15 23 17 64 20 64 4z m-80 -224 c0 -2 -10 -9 -22 -15 -22 -11 -22
-10 -4 4 21 17 26 19 26 11z m1140 -67 c0 -6 -6 -5 -15 2 -8 7 -15 14 -15 16
0 2 7 1 15 -2 8 -4 15 -11 15 -16z m-1030 -110 c0 -2 -14 -30 -30 -62 -17 -32
-30 -65 -30 -73 0 -8 -4 -11 -10 -8 -5 3 -10 -1 -10 -10 0 -14 -8 -32 -31 -75
-5 -8 -21 -37 -35 -65 -37 -71 -64 -106 -75 -100 -5 4 -6 0 -3 -8 3 -8 -3 -20
-12 -28 -15 -12 -16 -12 -10 8 4 13 2 24 -5 29 -8 4 -9 3 -5 -4 4 -6 2 -21 -5
-33 -8 -15 -8 -19 0 -15 17 11 13 -2 -11 -37 -51 -72 -116 -146 -123 -139 -5
4 -5 2 -2 -4 4 -6 -1 -18 -11 -26 -31 -27 -39 -28 -37 -5 1 14 8 21 19 21 10
-1 15 0 12 3 -9 9 14 44 24 38 6 -3 7 0 4 8 -3 8 6 27 19 43 13 16 35 48 49
72 13 23 28 39 32 35 4 -4 4 1 0 11 -6 15 -4 17 6 11 10 -6 12 -4 7 8 -3 9 -2
19 3 22 5 3 20 28 34 54 17 35 20 48 10 47 -7 -1 -17 -6 -21 -11 -4 -4 -2 -5
4 -1 9 5 11 2 6 -9 -5 -14 -8 -14 -15 -3 -7 10 -8 9 -4 -5 6 -18 -8 -45 -63
-120 -34 -46 -63 -66 -39 -27 11 17 10 22 -2 30 -13 9 -7 14 13 11 4 0 7 5 7
13 0 8 7 17 16 20 8 3 13 10 9 15 -3 6 1 13 8 18 8 4 19 18 26 31 10 18 9 23
-4 28 -8 3 -15 11 -15 16 0 17 62 138 71 138 10 0 -10 -71 -26 -90 -18 -21
-27 -57 -17 -64 13 -8 35 28 57 94 11 30 23 59 27 64 14 17 20 -2 8 -26 -10
-22 -10 -22 4 -4 10 12 13 29 10 45 -4 18 -3 22 4 13 7 -11 11 -8 15 10 4 14
18 30 32 36 14 6 25 16 25 22 0 20 19 9 22 -12 3 -21 5 -19 26 15 13 20 28 37
33 37 5 0 9 -1 9 -2z m12 -61 c-5 -7 -6 -21 -1 -32 4 -11 8 -14 8 -7 2 28 20
9 26 -27 4 -22 14 -46 22 -53 15 -12 16 -9 10 20 -4 18 -2 32 3 32 12 0 20
-34 20 -75 -1 -41 10 -95 20 -95 5 0 11 -15 15 -32 4 -18 12 -42 19 -53 19
-31 38 -104 30 -117 -4 -7 -3 -8 4 -4 7 4 12 1 12 -7 0 -8 7 -28 15 -43 21
-41 18 -22 -13 84 -16 51 -32 89 -36 85 -4 -4 -4 1 0 11 6 16 8 17 16 2 5 -9
13 -14 18 -11 4 3 6 -4 3 -14 -3 -12 3 -26 16 -37 12 -10 21 -25 22 -34 1 -8
5 -4 9 10 4 14 8 18 9 10 1 -9 11 -24 22 -34 16 -13 18 -21 10 -29 -6 -6 -11
-15 -11 -20 0 -5 8 -1 17 9 16 16 18 15 30 -15 7 -17 20 -31 28 -31 9 0 12 -6
9 -15 -4 -10 -2 -13 7 -10 14 5 19 -3 55 -90 15 -38 15 -39 -3 -25 -16 14 -17
14 -5 -2 8 -9 11 -22 8 -27 -4 -5 -1 -13 5 -17 7 -4 9 -3 5 4 -3 6 -2 13 3 17
6 3 9 -10 8 -32 -2 -30 -7 -39 -24 -41 -11 -2 -39 -19 -62 -38 -22 -20 -38
-28 -35 -20 3 9 1 16 -5 16 -6 0 -11 -5 -11 -11 0 -5 -4 -7 -10 -4 -5 3 -10 1
-10 -4 0 -6 -9 -11 -21 -11 -15 0 -19 -4 -15 -16 4 -10 1 -14 -6 -11 -7 2 -12
17 -11 33 2 25 1 26 -6 9 -5 -11 -12 -28 -15 -37 -3 -11 -15 -18 -29 -18 -29
0 -73 -33 -82 -60 -7 -23 -25 -17 -25 8 0 24 -36 52 -62 49 -13 -1 -22 3 -21
10 2 6 -6 15 -17 18 -14 4 -20 16 -21 38 -1 26 -2 28 -7 11 -6 -18 -11 -20
-30 -13 -13 5 -20 13 -17 19 4 6 -11 10 -39 10 -25 0 -47 4 -50 9 -3 4 7 7 22
5 15 -2 19 -1 10 2 -10 3 -18 10 -18 16 0 6 -11 8 -27 4 -17 -4 -23 -3 -15 2
10 7 9 12 -4 23 -12 9 -15 10 -10 2 11 -20 -12 -15 -33 6 -11 11 -40 21 -67
25 -27 3 -56 7 -65 8 -10 1 -14 8 -11 17 3 9 1 12 -7 7 -15 -10 -10 12 9 37 8
11 48 58 88 106 75 89 161 220 228 351 22 41 42 77 47 78 4 2 7 10 7 18 0 9 5
12 12 8 8 -5 9 0 5 15 -3 14 0 24 9 28 8 3 14 13 15 22 0 10 2 12 6 3 3 -7 1
-18 -5 -25z m95 11 c-3 -8 -6 -5 -6 6 -1 11 2 17 5 13 3 -3 4 -12 1 -19z m-42
-8 c3 -5 1 -10 -4 -10 -6 0 -11 5 -11 10 0 6 2 10 4 10 3 0 8 -4 11 -10z
m-288 -22 c-3 -8 -6 -5 -6 6 -1 11 2 17 5 13 3 -3 4 -12 1 -19z m330 -30 c-3
-7 -5 -2 -5 12 0 14 2 19 5 13 2 -7 2 -19 0 -25z m-326 -11 c-10 -9 -11 -8 -5
6 3 10 9 15 12 12 3 -3 0 -11 -7 -18z m369 -23 c0 -8 -5 -12 -10 -9 -6 4 -8
11 -5 16 9 14 15 11 15 -7z m-439 -30 c-12 -19 -21 -40 -21 -47 0 -18 -52 -87
-61 -81 -13 7 -11 17 6 40 15 19 15 19 9 -1 -5 -17 -2 -16 15 5 11 14 21 32
20 40 0 11 -3 10 -14 -4 -8 -11 -15 -16 -15 -10 1 15 26 44 33 37 4 -3 7 -1 7
5 0 11 30 52 38 52 2 0 -5 -16 -17 -36z m406 -11 c-3 -10 -5 -2 -5 17 0 19 2
27 5 18 2 -10 2 -26 0 -35z m80 -72 c-3 -25 1 -51 13 -77 11 -23 19 -32 19
-21 2 35 37 -11 47 -61 1 -8 10 -22 20 -33 9 -10 12 -19 7 -19 -14 0 -40 41
-49 74 -8 32 -24 34 -25 4 -1 -17 -3 -14 -11 11 -6 23 -12 30 -17 22 -10 -16
-18 11 -16 54 4 76 5 85 11 85 4 0 4 -17 1 -39z m-59 -16 c-3 -3 -9 2 -12 12
-6 14 -5 15 5 6 7 -7 10 -15 7 -18z m95 -40 c-3 -9 -8 -14 -10 -11 -3 3 -2 9
2 15 9 16 15 13 8 -4z m-1153 -45 c-6 -11 -13 -20 -16 -20 -2 0 0 9 6 20 6 11
13 20 16 20 2 0 0 -9 -6 -20z m1077 -2 c-3 -8 -6 -5 -6 6 -1 11 2 17 5 13 3
-3 4 -12 1 -19z m148 -9 c10 -30 2 -32 -12 -3 -6 13 -7 24 -3 24 5 0 12 -9 15
-21z m103 -4 c-3 -3 -9 2 -12 12 -6 14 -5 15 5 6 7 -7 10 -15 7 -18z m-1385
-132 c-52 -67 -63 -78 -63 -71 0 21 83 133 88 118 2 -6 -9 -27 -25 -47z m507
22 c-7 -9 -15 -13 -19 -10 -3 3 1 10 9 15 21 14 24 12 10 -5z m-130 -25 c-12
-16 -24 -30 -26 -30 -3 0 4 14 16 30 12 17 24 30 26 30 3 0 -4 -13 -16 -30z
m2044 14 c3 -8 2 -12 -4 -9 -6 3 -10 10 -10 16 0 14 7 11 14 -7z m-1823 -17
c-10 -9 -11 -8 -5 6 3 10 9 15 12 12 3 -3 0 -11 -7 -18z m1848 -52 c0 -5 -4
-3 -9 5 -5 8 -9 22 -9 30 0 16 17 -16 18 -35z m-2119 -15 c-12 -16 -24 -30
-26 -30 -3 0 4 14 16 30 12 17 24 30 26 30 3 0 -4 -13 -16 -30z m2130 -43
c-10 -9 -11 -9 -6 0 3 6 1 13 -6 15 -7 3 -8 10 -3 17 6 11 10 10 17 -4 7 -12
6 -21 -2 -28z m-2516 -14 c-9 -21 -22 -45 -31 -53 -12 -13 -12 -9 1 24 15 36
34 66 42 66 2 0 -4 -17 -12 -37z m27 14 c-10 -9 -11 -8 -5 6 3 10 9 15 12 12
3 -3 0 -11 -7 -18z m1492 -63 c-19 -29 -28 -32 -13 -4 6 11 8 25 5 30 -3 5 1
7 9 4 14 -5 13 -9 -1 -30z m-927 -206 c3 -4 12 -8 20 -8 8 0 12 5 9 10 -8 13
1 13 28 -2 12 -6 38 -13 57 -15 51 -6 50 -13 -3 -13 -26 0 -47 3 -47 8 0 4
-12 7 -27 8 -91 1 -133 5 -133 13 0 11 89 11 96 -1z m471 -58 c-4 -28 -15 -35
-12 -8 3 27 3 28 10 28 3 0 4 -9 2 -20z m-587 -42 c-1 -51 -1 -52 -15 -28 -14
25 -14 25 -15 -13 0 -21 -4 -36 -9 -33 -5 4 -11 0 -14 -6 -3 -9 -9 -7 -20 7
-13 17 -13 23 -1 46 13 25 12 27 -6 22 -11 -3 -20 -1 -20 5 0 13 44 24 64 16
11 -4 16 -1 16 10 0 21 -67 22 -116 1 -26 -11 -34 -11 -31 -2 5 15 46 24 115
26 l52 1 0 -52z m180 30 c92 -12 84 -25 -16 -27 -28 -1 -71 -8 -94 -16 -24 -8
-44 -14 -46 -13 -1 2 -5 20 -9 40 l-7 36 44 -4 c23 -3 81 -10 128 -16z m-470
2 c0 -5 -4 -10 -10 -10 -5 0 -10 5 -10 10 0 6 5 10 10 10 6 0 10 -4 10 -10z
m96 -39 c-24 -26 -30 -106 -16 -204 19 -134 29 -137 70 -19 22 64 39 98 46 95
7 -2 14 4 17 14 4 16 5 16 6 -2 1 -11 10 -30 20 -42 20 -24 51 -31 51 -12 0 6
10 9 21 7 15 -2 27 -18 41 -55 11 -29 24 -53 29 -53 5 0 2 16 -6 36 -8 20 -12
41 -8 47 3 6 1 7 -5 3 -7 -4 -12 -1 -12 8 0 19 17 30 25 16 3 -5 15 -10 26
-10 10 0 19 -4 19 -9 0 -5 9 -7 19 -4 18 5 27 0 66 -34 7 -7 22 -13 31 -13 22
0 7 -16 -21 -22 -17 -4 -15 -6 9 -13 18 -5 36 -4 47 4 10 6 26 11 35 11 9 0
36 13 60 30 24 16 44 26 44 22 0 -4 16 -7 35 -7 32 0 34 1 18 14 -17 12 -16
13 5 8 19 -5 22 -2 16 11 -10 24 -12 82 -2 82 4 0 8 5 8 11 0 5 -6 7 -12 3 -7
-4 -10 -4 -6 1 8 9 -19 31 -62 52 l-25 13 25 -6 c38 -9 73 -37 91 -72 22 -43
12 -89 -46 -208 -71 -148 -115 -174 -290 -174 -173 0 -317 30 -353 73 -21 24
-51 140 -61 232 -12 105 -3 161 31 188 27 23 38 5 14 -22z m2054 -36 c8 -11
-5 -2 -28 20 -23 21 -42 43 -42 48 0 10 47 -36 70 -68z m-1240 31 c0 -3 -4 -8
-10 -11 -5 -3 -10 -1 -10 4 0 6 5 11 10 11 6 0 10 -2 10 -4z m-440 -18 c0 -7
-26 -21 -58 -31 -31 -10 -63 -20 -69 -23 -7 -3 -13 1 -13 9 0 8 13 17 31 21
17 3 28 10 24 15 -5 9 18 15 68 20 9 0 17 -5 17 -11z m1660 -53 c11 -13 10
-14 -4 -9 -9 3 -16 10 -16 15 0 13 6 11 20 -6z m-1710 -42 c0 -25 -1 -26 -16
-11 -9 9 -13 21 -10 27 13 20 26 11 26 -16z m712 15 c-32 -32 -3 -181 56 -291
30 -56 47 -75 87 -99 41 -24 45 -28 20 -23 -16 4 -48 21 -70 40 -34 27 -45 48
-74 129 -37 107 -51 216 -31 241 7 8 15 15 18 15 3 0 1 -5 -6 -12z m-533 -29
c-16 -10 -23 -4 -14 10 3 6 11 8 17 5 6 -4 5 -9 -3 -15z m391 1 c44 -12 61
-40 90 -145 39 -141 67 -196 117 -233 47 -35 74 -82 66 -113 -9 -31 -51 -52
-94 -45 -41 7 -139 -20 -185 -51 -33 -21 -101 -11 -154 22 -22 14 -44 25 -50
25 -5 0 -10 4 -10 10 0 11 -70 43 -78 36 -7 -7 32 -55 46 -56 6 0 12 -5 12
-10 0 -6 -15 -4 -36 5 -44 18 -85 11 -77 -13 4 -13 1 -12 -11 3 -17 20 -17 20
-12 -4 3 -13 1 -32 -5 -42 -14 -27 24 -45 88 -41 17 2 21 7 17 27 -3 19 -1 23
11 19 8 -3 14 -9 13 -12 -2 -22 5 -29 27 -24 14 2 25 0 25 -6 0 -25 125 -39
159 -18 10 6 12 5 7 -3 -8 -12 33 -9 87 6 9 2 17 1 17 -4 0 -5 13 -14 29 -20
25 -9 29 -8 24 5 -4 10 -2 13 5 8 14 -8 15 3 3 22 -6 10 -10 8 -15 -10 -5 -14
-9 -18 -13 -10 -2 6 -9 10 -14 6 -5 -3 -9 0 -9 5 0 6 7 11 15 11 8 0 15 6 15
13 0 26 29 13 41 -17 l11 -31 8 25 c6 24 7 24 14 -8 6 -26 11 -31 19 -23 9 9
9 14 0 19 -6 4 -13 22 -16 40 -4 27 -1 36 18 48 24 16 45 12 45 -8 0 -7 -5 -6
-14 1 -11 10 -17 7 -29 -10 -18 -25 -12 -55 8 -39 10 8 14 3 17 -19 2 -17 1
-28 -4 -25 -4 3 -8 -1 -8 -8 0 -19 48 -17 60 2 8 12 10 11 10 -7 0 -17 6 -23
23 -25 29 -2 38 -3 62 -13 57 -22 73 -30 70 -35 -2 -3 6 -6 18 -7 12 0 16 1
10 4 -7 3 -13 9 -13 15 0 6 9 3 20 -7 21 -19 26 -50 10 -60 -6 -3 -13 1 -16 9
-4 11 -11 13 -23 6 -10 -5 -22 -5 -27 -1 -13 13 -105 30 -122 23 -11 -4 -13
-2 -7 8 5 8 4 11 -3 7 -13 -9 -4 -47 12 -47 6 0 4 -5 -4 -10 -14 -9 -102 -6
-190 6 -61 9 -134 16 -177 17 -23 1 -45 6 -50 11 -4 4 36 6 92 3 58 -2 79 -1
50 3 l-50 7 49 1 c27 1 47 5 43 8 -3 4 -49 3 -102 -1 -70 -5 -95 -10 -95 -20
0 -11 -23 -13 -112 -11 -75 2 -101 0 -78 -6 81 -19 197 -29 375 -34 233 -7
224 -6 222 -19 -4 -19 55 -17 103 4 55 24 59 24 79 12 12 -8 13 -12 1 -26 -11
-13 -11 -18 0 -28 10 -9 13 -9 17 1 3 6 11 12 18 12 7 0 16 6 18 13 4 9 6 9 6
0 1 -6 -8 -18 -20 -26 -11 -8 -21 -22 -23 -30 -1 -8 -8 -22 -15 -31 -17 -20
-3 -20 23 -1 10 8 23 12 29 8 6 -3 7 -1 3 5 -4 7 -3 12 1 12 5 0 14 13 20 30
6 16 20 33 30 37 51 19 91 102 72 151 -7 18 -13 22 -18 14 -5 -9 -14 -4 -32
15 -13 15 -16 21 -6 14 25 -20 22 4 -5 29 -12 11 -26 20 -32 20 -5 0 -6 3 -3
6 8 9 -30 57 -51 65 -9 3 -17 12 -18 20 0 8 -2 28 -2 46 -1 21 -8 33 -19 36
-10 2 34 2 97 -1 63 -2 134 0 157 6 43 10 43 10 52 -22 l9 -31 1 33 c1 31 21
47 21 16 0 -8 4 -12 10 -9 5 3 12 -6 16 -20 4 -17 12 -25 23 -23 12 3 16 14
15 46 0 23 3 42 8 42 4 0 8 -9 8 -19 0 -11 5 -23 10 -26 10 -6 13 29 11 130 0
35 1 37 9 15 6 -21 8 -21 9 -5 1 19 1 19 16 -2 47 -68 30 -301 -36 -483 -33
-91 -103 -229 -117 -230 -7 0 -17 -11 -22 -24 -5 -14 -18 -30 -30 -36 -11 -6
-20 -18 -20 -26 0 -8 -4 -12 -10 -9 -5 3 -10 -2 -10 -13 0 -28 -11 -34 -32
-15 -17 15 -18 15 -18 -10 0 -15 -4 -27 -10 -27 -5 0 -10 -16 -10 -36 0 -31
-2 -34 -15 -20 -18 17 -20 56 -4 56 8 0 8 5 -1 15 -18 22 -30 9 -24 -28 5 -30
5 -31 -10 -13 -12 15 -16 16 -16 5 -1 -11 -2 -11 -10 2 -5 8 -7 24 -5 35 2 10
4 21 4 24 1 3 6 -2 11 -10 6 -10 8 3 5 40 -3 40 -2 48 4 30 8 -21 9 -18 10 22
1 52 -10 66 -30 41 -10 -12 -10 -14 -1 -9 14 8 14 -11 2 -59 l-8 -30 -2 35
c-1 28 -3 31 -9 15 -5 -11 -6 -26 -3 -34 3 -9 1 -12 -6 -7 -7 4 -12 2 -12 -5
0 -8 -7 -6 -23 4 -32 21 -61 5 -32 -17 14 -11 16 -15 6 -16 -8 0 -23 8 -33 17
-18 16 -19 16 -9 -10 9 -22 7 -28 -9 -37 -14 -7 -20 -7 -20 0 0 5 -7 10 -16
10 -13 0 -14 -3 -5 -13 6 -8 8 -17 4 -21 -4 -4 0 -4 10 0 10 3 17 1 17 -5 0
-6 -9 -11 -21 -11 -15 0 -19 5 -15 15 3 8 1 15 -3 15 -5 0 -18 3 -28 6 -14 4
-15 4 -4 -4 7 -5 11 -15 7 -20 -4 -6 7 -18 24 -27 29 -15 39 -38 21 -50 -5 -3
-12 -1 -15 4 -6 10 -46 3 -46 -8 0 -3 -10 -18 -23 -32 -20 -24 -24 -25 -37
-11 -13 14 -12 15 2 10 9 -4 18 -1 21 6 4 9 -4 12 -24 11 -15 -1 -26 1 -24 5
3 4 -13 7 -34 7 -36 0 -40 -2 -52 -39 -10 -32 -10 -41 1 -51 9 -9 11 -9 6 0
-4 7 1 11 13 10 17 -1 17 -3 4 -23 -16 -25 -33 -26 -57 -2 -12 12 -13 18 -3
22 9 5 9 7 -1 12 -10 5 -10 9 -1 20 9 11 7 15 -7 21 -11 3 -22 11 -25 16 -4 5
-12 6 -18 2 -9 -5 -7 -11 6 -22 10 -8 12 -12 5 -8 -17 9 -27 -22 -13 -39 9
-11 8 -18 -4 -30 -9 -9 -22 -16 -28 -15 -9 0 -8 2 1 6 23 9 13 33 -14 33 -21
0 -25 -4 -21 -20 4 -17 2 -18 -14 -9 -14 7 -18 16 -13 31 5 17 3 20 -10 15 -9
-4 -27 -2 -40 3 -20 7 -25 5 -29 -11 -6 -21 -27 -26 -27 -6 0 7 6 19 13 26 10
10 8 15 -7 27 -27 19 -42 18 -60 -8 -11 -15 -12 -26 -6 -39 13 -24 13 -26 -10
-32 -16 -4 -18 -2 -10 13 8 15 6 17 -10 13 -11 -3 -20 -10 -20 -15 0 -5 -4 -6
-10 -3 -5 3 -10 0 -10 -7 0 -9 -3 -9 -10 2 -13 20 -13 33 0 25 6 -3 10 1 10
10 0 13 -6 15 -32 10 -18 -4 -37 -13 -41 -19 -6 -7 -7 -5 -4 6 3 9 3 19 -1 21
-4 2 -1 2 7 0 19 -5 51 26 51 49 0 10 -7 18 -15 18 -8 0 -15 -6 -15 -14 0 -8
-7 -17 -16 -20 -12 -4 -15 -2 -10 9 10 28 -52 22 -77 -8 -15 -17 -18 -18 -13
-4 7 21 -12 23 -20 2 -4 -8 -10 -15 -16 -15 -5 0 -1 14 9 30 19 32 47 42 36
13 -5 -15 -3 -16 8 -5 7 6 21 12 30 12 10 0 21 5 25 11 4 8 -1 9 -17 4 -23 -7
-24 -7 -4 9 22 17 13 21 -15 6 -15 -8 -17 -6 -13 10 3 12 0 20 -6 20 -7 0 -10
-4 -7 -9 7 -11 -37 -41 -59 -41 -12 0 -9 6 9 24 30 27 32 36 11 36 -8 0 -15
-4 -15 -8 0 -5 -12 -14 -27 -21 l-28 -13 24 26 c14 14 19 26 12 26 -7 0 -9 5
-5 11 4 8 -1 9 -17 4 -22 -7 -22 -7 -5 10 14 14 15 20 4 26 -10 7 -10 9 1 9 8
0 12 3 9 6 -4 3 -21 -2 -40 -11 -22 -11 -27 -11 -16 -2 16 13 16 15 -8 26 -14
6 -23 7 -20 2 3 -5 -5 -19 -18 -32 -13 -13 -21 -29 -18 -38 4 -10 1 -12 -8 -6
-9 5 -11 4 -6 -3 11 -18 26 -14 26 7 0 10 6 21 13 24 8 3 12 -8 12 -36 0 -25
5 -42 14 -45 9 -3 11 0 7 7 -8 13 10 41 27 41 6 0 3 -6 -8 -13 -10 -8 -15 -18
-12 -23 3 -6 1 -16 -4 -24 -8 -13 -10 -13 -19 0 -5 8 -10 11 -10 5 0 -5 -5 -4
-12 3 -14 14 -32 16 -23 2 3 -6 -1 -7 -9 -4 -9 3 -16 17 -16 30 0 17 -4 22
-15 18 -10 -4 -15 0 -15 12 0 16 -2 17 -11 4 -8 -12 -9 -9 -5 11 4 16 -2 41
-14 65 -11 21 -19 30 -18 20 5 -36 -21 -28 -28 8 -3 21 -10 33 -17 29 -6 -4
-8 2 -5 15 3 12 1 20 -4 19 -12 -2 -57 103 -93 217 -35 110 -67 312 -68 431
-1 91 19 278 22 212 1 -30 2 -31 56 -93 28 -33 49 -46 103 -63 82 -26 188 -40
308 -41 l91 0 -5 -29 c-2 -16 1 -37 7 -48 9 -15 10 -12 5 14 -8 40 13 76 59
99 54 28 86 71 143 189 70 149 97 169 184 145z m-1003 -72 c-3 -8 -6 -5 -6 6
-1 11 2 17 5 13 3 -3 4 -12 1 -19z m2401 -148 c2 11 5 11 14 2 9 -9 8 -25 -1
-69 -21 -94 -30 -106 -30 -41 -1 31 -6 60 -12 64 -8 4 -10 26 -6 60 8 78 21
89 28 24 3 -30 6 -48 7 -40z m-691 -80 c19 -42 35 -101 29 -108 -4 -3 -14 -7
-24 -9 -32 -6 -244 -3 -255 4 -6 3 11 12 36 20 26 7 47 19 47 26 0 8 11 23 25
35 14 12 25 27 25 33 0 6 6 9 13 6 6 -2 17 3 24 12 11 14 12 14 14 -4 0 -13 4
-8 11 14 9 32 10 33 26 15 9 -11 22 -30 29 -44z m-252 -81 c4 -5 -5 -9 -19 -9
-14 0 -26 4 -26 8 0 11 39 12 45 1z m-16 -25 c2 -2 -7 -4 -22 -4 -14 0 -29 5
-32 10 -6 10 42 4 54 -6z m-768 -167 c-10 -9 -11 -8 -5 6 3 10 9 15 12 12 3
-3 0 -11 -7 -18z m129 19 c0 -3 -4 -8 -10 -11 -5 -3 -10 -1 -10 4 0 6 5 11 10
11 6 0 10 -2 10 -4z m-70 -26 c0 -5 -7 -10 -16 -10 -8 0 -12 5 -9 10 3 6 10
10 16 10 5 0 9 -4 9 -10z m-52 -22 c7 -7 12 -17 12 -22 0 -6 -5 -3 -11 7 -8
13 -14 15 -29 7 -16 -8 -18 -8 -14 5 7 18 26 19 42 3z m93 -11 c-10 -9 -11 -8
-5 6 3 10 9 15 12 12 3 -3 0 -11 -7 -18z m477 -22 c-3 -3 -9 2 -12 12 -6 14
-5 15 5 6 7 -7 10 -15 7 -18z m32 -15 c0 -5 -4 -10 -10 -10 -5 0 -10 5 -10 10
0 6 5 10 10 10 6 0 10 -4 10 -10z m712 -50 c3 -21 -2 -26 -25 -28 -24 -3 -27
0 -23 20 9 48 18 61 32 46 7 -7 15 -24 16 -38z m-498 -36 c5 -14 4 -15 -9 -4
-17 14 -19 20 -6 20 5 0 12 -7 15 -16z m86 -55 c0 -11 -4 -17 -10 -14 -7 4 -9
-3 -5 -22 l6 -28 -14 30 c-9 21 -10 33 -3 42 16 18 26 15 26 -8z m157 -341
c-3 -8 -6 -5 -6 6 -1 11 2 17 5 13 3 -3 4 -12 1 -19z m-257 -29 c0 -6 -4 -7
-10 -4 -5 3 -10 11 -10 16 0 6 5 7 10 4 6 -3 10 -11 10 -16z m266 -163 c-24
-156 -55 -292 -75 -321 -4 -5 -13 -28 -20 -49 -25 -72 -149 -266 -171 -266 -5
0 -12 -9 -15 -20 -9 -27 -119 -102 -139 -94 -11 4 -16 1 -16 -10 0 -9 -5 -16
-11 -16 -5 0 -8 4 -4 9 13 22 -13 18 -29 -5 -20 -25 -66 -33 -66 -11 0 8 -20
12 -67 12 -54 0 -68 3 -68 15 0 10 8 14 28 12 19 -2 27 2 27 13 0 10 9 15 28
15 19 0 23 3 13 9 -7 5 -23 6 -35 3 -20 -5 -20 -4 -4 14 12 13 14 24 8 34 -8
12 -10 12 -10 1 0 -11 -3 -11 -15 -1 -9 8 -31 10 -62 6 l-48 -7 70 36 c39 19
75 35 80 35 15 0 36 38 26 45 -5 3 -21 1 -35 -5 -14 -5 -32 -7 -40 -4 -8 3
-25 -1 -36 -9 -12 -8 -31 -13 -43 -10 -18 4 -19 3 -7 -6 12 -8 6 -11 -26 -11
-23 0 -56 3 -73 6 -29 6 -30 8 -14 20 17 12 16 13 -4 7 -18 -4 -21 -10 -16
-34 6 -34 -1 -35 -57 -13 -23 9 -44 13 -48 9 -4 -4 -1 -10 7 -13 7 -2 22 -13
32 -23 11 -11 23 -19 28 -19 6 0 13 -5 17 -11 5 -9 -7 -10 -44 -7 -28 3 -55 2
-59 -2 -4 -4 -28 -5 -52 -2 -32 3 -45 9 -48 23 -3 10 -9 16 -14 13 -5 -3 -6 2
-3 10 7 17 -11 22 -21 6 -10 -16 -35 -12 -35 6 0 12 -7 14 -30 9 -19 -4 -30
-3 -30 4 0 6 -8 12 -17 12 -17 1 -17 2 0 6 22 6 12 23 -15 23 -26 0 -78 37
-78 56 0 8 -4 14 -10 14 -5 0 -10 7 -10 15 0 8 -4 15 -10 15 -5 0 -10 7 -10
15 0 8 -4 15 -9 15 -5 0 -31 44 -58 98 l-48 97 -2 165 c-1 91 0 158 4 150 3
-8 9 -17 13 -20 4 -3 19 -25 35 -49 15 -25 38 -56 51 -70 13 -14 22 -32 19
-38 -2 -7 2 -13 10 -13 7 0 17 -9 20 -21 11 -32 38 -61 46 -47 4 6 9 2 14 -11
3 -11 13 -21 20 -21 9 0 12 -6 9 -15 -4 -8 -1 -15 6 -15 24 0 181 -81 175 -90
-3 -6 -1 -10 4 -10 6 0 11 5 11 11 0 6 5 7 13 2 6 -4 25 -8 40 -9 15 -1 34
-10 42 -20 8 -11 14 -14 15 -6 0 6 4 12 10 12 5 0 7 -6 4 -14 -7 -18 15 -31
29 -17 6 6 17 11 25 11 12 0 12 -3 2 -15 -10 -12 -7 -15 14 -21 21 -5 25 -10
20 -30 -8 -29 -1 -30 37 -3 22 15 27 17 23 5 -3 -9 -10 -16 -15 -16 -5 0 -8
-11 -7 -25 1 -14 4 -25 7 -25 15 0 91 58 91 69 0 11 4 9 14 -5 14 -19 15 -19
40 5 14 14 26 21 26 16 0 -5 5 -4 12 3 8 8 15 9 25 1 9 -8 13 -8 13 0 0 8 8 6
23 -3 16 -11 32 -13 52 -8 19 5 25 11 17 16 -17 10 -15 29 3 22 9 -3 15 0 15
9 0 9 9 15 23 15 12 0 37 16 56 35 19 19 40 35 47 35 7 0 18 8 24 18 11 16 11
16 6 -1 -4 -14 -1 -18 12 -15 9 2 16 11 14 19 -3 18 41 41 63 33 8 -4 15 -1
15 5 0 6 7 11 15 11 8 0 15 6 16 13 3 52 19 106 19 64 0 -10 5 -17 10 -17 14
0 13 26 -2 50 -9 15 -9 24 1 42 6 13 13 32 15 43 6 38 26 27 26 -14 0 -23 -4
-41 -10 -41 -5 0 -10 -9 -10 -20 0 -25 12 -26 27 -1 7 11 10 34 6 55 -4 24 0
44 11 60 9 14 17 40 17 58 1 24 3 27 6 11 5 -24 23 -32 23 -11 0 6 8 20 17 30
16 18 16 19 -3 13 -18 -6 -18 -6 -2 8 10 8 15 17 11 20 -3 4 1 7 10 7 10 0 17
8 17 17 0 9 3 14 6 10 3 -3 -6 -84 -20 -181z m-216 66 c0 -8 -6 -11 -12 -8 -7
3 -20 9 -30 12 -15 5 -15 7 0 23 15 15 18 15 29 1 7 -8 13 -21 13 -28z m400
29 c0 -12 -41 -63 -47 -57 -4 4 37 66 44 66 2 0 3 -4 3 -9z m-260 -47 c0 -2
-7 -4 -15 -4 -8 0 -15 4 -15 10 0 5 7 7 15 4 8 -4 15 -8 15 -10z m-1236 -18
c-8 -22 -28 -25 -49 -10 -16 12 -16 14 -3 14 9 0 18 -6 21 -12 3 -9 7 -7 12 5
8 20 27 23 19 3z m146 -46 c-9 -6 -11 -10 -3 -10 7 0 10 -7 7 -15 -4 -8 -10
-15 -15 -15 -4 0 -5 7 -2 17 5 12 3 14 -8 8 -12 -8 -12 -6 0 8 7 9 19 17 25
17 6 0 4 -5 -4 -10z m254 -11 c-3 -5 -10 -7 -15 -3 -5 3 -7 10 -3 15 3 5 10 7
15 3 5 -3 7 -10 3 -15z m-411 -4 c-3 -9 -8 -14 -10 -11 -3 3 -2 9 2 15 9 16
15 13 8 -4z m80 -15 c-3 -11 -10 -23 -16 -27 -5 -3 -8 -2 -5 3 3 5 8 17 11 27
9 24 16 22 10 -3z m681 5 c4 -13 2 -14 -14 -5 -11 6 -26 8 -32 4 -7 -4 -8 -3
-4 4 10 17 43 15 50 -3z m140 -11 c8 -20 -8 -17 -28 5 -17 19 -17 19 2 14 12
-3 23 -11 26 -19z m-779 -3 c3 -5 1 -12 -5 -16 -5 -3 -10 1 -10 9 0 18 6 21
15 7z m265 -7 c0 -8 -4 -12 -10 -9 -5 3 -10 10 -10 16 0 5 5 9 10 9 6 0 10 -7
10 -16z m370 -24 c0 -5 -2 -10 -4 -10 -3 0 -8 5 -11 10 -3 6 -1 10 4 10 6 0
11 -4 11 -10z m80 -21 c0 -6 -4 -7 -10 -4 -5 3 -10 11 -10 16 0 6 5 7 10 4 6
-3 10 -11 10 -16z m-35 2 c3 -5 1 -12 -4 -15 -5 -3 -11 1 -15 9 -6 16 9 21 19
6z m0 -289 c0 -18 -20 -15 -23 4 -3 10 1 15 10 12 7 -3 13 -10 13 -16z m-401
-474 c-4 -6 -10 -5 -15 3 -14 22 -10 33 6 19 8 -7 12 -17 9 -22z m160 7 c-4
-8 -10 -12 -15 -9 -11 6 -2 24 11 24 5 0 7 -7 4 -15z m-70 -43 c-2 -20 -3 -47
-3 -60 -1 -18 -6 -23 -23 -20 -16 2 -22 9 -20 22 2 10 -2 22 -9 26 -8 6 -5 11
10 20 14 7 20 17 16 28 -3 12 1 18 13 19 16 1 18 -5 16 -35z m-64 -100 c0 -82
59 -100 72 -23 16 93 23 54 20 -108 l-3 -167 -49 -3 -49 -2 -3 171 c-2 93 0
170 5 170 4 0 7 -17 7 -38z m1270 -142 c0 -5 -2 -10 -4 -10 -3 0 -8 5 -11 10
-3 6 -1 10 4 10 6 0 11 -4 11 -10z"/>
<path d="M2894 5348 c-29 -59 -29 -59 15 -4 32 40 38 56 21 56 -5 0 -22 -24
-36 -52z"/>
<path d="M3041 5344 c0 -11 3 -14 6 -6 3 7 2 16 -1 19 -3 4 -6 -2 -5 -13z"/>
<path d="M3325 4940 c-3 -5 -1 -10 4 -10 6 0 11 5 11 10 0 6 -2 10 -4 10 -3 0
-8 -4 -11 -10z"/>
<path d="M2640 4769 c0 -5 5 -7 10 -4 6 3 10 8 10 11 0 2 -4 4 -10 4 -5 0 -10
-5 -10 -11z"/>
<path d="M3053 4583 c9 -2 25 -2 35 0 9 3 1 5 -18 5 -19 0 -27 -2 -17 -5z"/>
<path d="M2668 3927 c-16 -6 -28 -17 -28 -24 0 -7 -7 -13 -16 -13 -8 0 -13 -4
-9 -9 3 -5 -5 -11 -17 -13 -13 -2 -22 -9 -20 -16 1 -7 -6 -16 -15 -19 -24 -9
-72 -62 -84 -91 -5 -14 -14 -20 -21 -16 -6 4 -8 3 -5 -3 3 -5 2 -26 -3 -47 -8
-38 2 -91 23 -111 7 -7 7 -5 2 5 -8 13 -7 13 8 1 11 -8 15 -21 12 -32 -6 -19
17 -64 27 -53 3 3 11 -10 18 -30 13 -41 32 -59 54 -50 23 9 20 34 -5 34 -14 0
-19 5 -16 15 4 8 2 17 -4 21 -6 4 -6 11 2 20 6 7 9 20 6 28 -3 8 -1 17 6 19 9
3 8 8 -2 20 -23 29 44 22 84 -9 l34 -25 20 20 20 20 -26 21 c-24 19 -44 25
-67 21 -5 -1 -26 1 -47 4 -34 6 -37 9 -36 40 0 19 5 32 9 29 4 -3 8 3 8 13 0
13 3 14 8 5 6 -9 16 -4 37 18 16 16 23 30 17 30 -17 0 -15 35 3 50 8 7 15 21
15 31 0 11 5 19 10 19 6 0 10 6 10 13 0 7 9 19 20 27 22 16 27 51 8 49 -7 -1
-25 -6 -40 -12z m-58 -177 c0 -5 -4 -10 -10 -10 -5 0 -10 5 -10 10 0 6 5 10
10 10 6 0 10 -4 10 -10z m-50 -56 c-15 -27 -27 -16 -14 14 4 9 6 22 5 27 -1 6
3 4 10 -2 10 -10 10 -18 -1 -39z m-54 -46 c-8 -24 -15 -36 -16 -28 0 8 -3 24
-6 36 -3 13 1 28 12 39 25 24 28 6 10 -47z m27 -68 c6 -24 1 -25 -19 -6 -18
18 -18 26 0 26 7 0 16 -9 19 -20z"/>
<path d="M2737 3803 c-4 -3 -7 -13 -7 -21 0 -12 3 -12 15 -2 8 7 15 16 15 21
0 11 -14 12 -23 2z"/>
<path d="M2680 3782 c0 -7 7 -15 16 -19 11 -4 12 -8 4 -13 -7 -4 -9 -13 -5
-20 6 -9 9 -9 16 1 7 12 9 12 9 0 0 -11 3 -11 15 -1 8 7 15 18 15 24 0 6 -5 4
-10 -4 -9 -13 -11 -13 -19 0 -5 8 -7 18 -4 24 4 5 1 6 -7 1 -7 -4 -16 -2 -21
6 -7 11 -9 11 -9 1z"/>
<path d="M2658 3741 c-23 -23 -23 -40 0 -34 10 2 19 15 20 29 2 28 2 28 -20 5z"/>
<path d="M2913 3626 c0 -10 12 -17 31 -20 63 -10 273 -14 326 -7 52 7 49 7
-55 14 -144 10 -222 17 -266 23 -28 5 -36 3 -36 -10z"/>
<path d="M2948 3583 c12 -2 32 -2 45 0 12 2 2 4 -23 4 -25 0 -35 -2 -22 -4z"/>
<path d="M3323 3583 c9 -2 23 -2 30 0 6 3 -1 5 -18 5 -16 0 -22 -2 -12 -5z"/>
<path d="M2958 3563 c12 -2 30 -2 40 0 9 3 -1 5 -23 4 -22 0 -30 -2 -17 -4z"/>
<path d="M3947 3554 c-4 -4 -7 -14 -7 -23 0 -11 3 -12 11 -4 6 6 10 16 7 23
-2 6 -7 8 -11 4z"/>
<path d="M3900 3493 c0 -12 -4 -23 -10 -23 -5 0 -10 -9 -10 -19 0 -11 -7 -26
-15 -35 -8 -8 -15 -24 -15 -36 0 -13 16 9 40 55 22 42 40 78 40 79 0 2 -7 3
-15 3 -9 0 -15 -10 -15 -24z"/>
<path d="M2521 3444 c0 -11 3 -14 6 -6 3 7 2 16 -1 19 -3 4 -6 -2 -5 -13z"/>
<path d="M3819 3417 c-15 -12 -38 -30 -52 -40 -29 -21 -37 -44 -26 -76 11 -27
29 -19 29 14 0 26 19 44 29 27 4 -6 13 3 20 21 8 18 20 39 28 49 22 25 1 29
-28 5z"/>
<path d="M2543 3383 c-13 -5 -19 -53 -7 -53 11 0 34 29 34 44 0 16 -6 18 -27
9z"/>
<path d="M2601 3381 c-8 -5 -11 -16 -7 -26 8 -21 19 -13 21 15 1 11 1 20 1 20
-1 0 -7 -4 -15 -9z"/>
<path d="M3613 3351 c-12 -10 -19 -21 -16 -25 4 -3 1 -6 -5 -6 -7 0 -9 -7 -5
-17 5 -13 2 -15 -11 -10 -29 11 -13 -15 24 -40 18 -13 36 -23 40 -23 15 0 18
29 8 71 -9 32 -9 44 0 47 12 4 7 22 -6 22 -4 -1 -17 -9 -29 -19z m19 -86 c3
-13 2 -22 -2 -20 -11 7 -20 45 -10 45 4 0 10 -11 12 -25z"/>
<path d="M2506 3335 c-3 -8 -1 -15 4 -15 6 0 10 7 10 15 0 8 -2 15 -4 15 -2 0
-6 -7 -10 -15z"/>
<path d="M2527 3314 c-14 -15 -7 -24 11 -15 13 7 23 6 30 -1 7 -7 15 -9 19 -5
9 9 3 14 -27 22 -14 3 -29 3 -33 -1z"/>
<path d="M2911 3304 c0 -11 3 -14 6 -6 3 7 2 16 -1 19 -3 4 -6 -2 -5 -13z"/>
<path d="M2520 3278 c-33 -23 -52 -65 -25 -55 9 4 11 -1 8 -14 -4 -14 -1 -18
10 -13 8 3 18 16 21 29 5 21 10 23 31 15 17 -6 32 -5 50 4 23 12 22 13 -28 12
-28 -1 -55 -5 -59 -11 -4 -5 -11 -6 -15 -1 -4 5 -3 11 3 13 21 7 49 31 43 37
-3 3 -21 -4 -39 -16z"/>
<path d="M2955 3280 c9 -10 23 -16 30 -14 7 3 16 -4 20 -15 7 -22 46 -38 64
-26 6 3 11 2 11 -3 0 -6 16 -10 35 -10 19 0 35 4 35 9 0 5 -7 9 -17 9 -21 0
-13 8 13 13 10 2 26 7 34 10 37 13 70 17 70 7 0 -6 4 -9 10 -5 5 3 7 12 4 20
-4 10 -22 14 -57 14 -29 0 -67 2 -84 4 -18 2 -33 -1 -33 -6 0 -4 -5 -5 -12 -1
-7 4 -41 9 -76 10 -62 3 -63 2 -47 -16z"/>
<path d="M3791 3234 c0 -11 3 -14 6 -6 3 7 2 16 -1 19 -3 4 -6 -2 -5 -13z"/>
<path d="M3816 3232 c-4 -13 -5 -26 -2 -29 10 -11 18 4 14 29 l-4 23 -8 -23z"/>
<path d="M3760 3204 c0 -21 4 -33 10 -29 6 3 10 19 10 36 0 16 -4 29 -10 29
-5 0 -10 -16 -10 -36z"/>
<path d="M3520 3200 c0 -5 5 -10 10 -10 6 0 10 5 10 10 0 6 -4 10 -10 10 -5 0
-10 -4 -10 -10z"/>
<path d="M2637 3187 c-6 -16 20 -41 28 -27 3 6 3 10 -1 10 -3 0 -1 7 6 15 10
12 9 15 -8 15 -11 0 -22 -6 -25 -13z"/>
<path d="M3027 3074 c3 -7 11 -10 19 -7 14 5 18 -6 15 -39 -1 -10 2 -18 8 -18
15 0 23 18 14 33 -4 6 -6 20 -5 30 3 14 -3 17 -26 15 -19 -1 -28 -7 -25 -14z"/>
<path d="M3145 3080 c3 -5 8 -10 11 -10 2 0 4 5 4 10 0 6 -5 10 -11 10 -5 0
-7 -4 -4 -10z"/>
<path d="M3420 3080 c0 -15 21 -23 32 -12 6 6 2 11 -11 15 -12 3 -21 1 -21 -3z"/>
<path d="M2975 3060 c-16 -17 -16 -20 -3 -15 9 4 19 13 22 21 7 19 2 18 -19
-6z"/>
<path d="M3395 3060 c-3 -5 -1 -10 4 -10 6 0 11 5 11 10 0 6 -2 10 -4 10 -3 0
-8 -4 -11 -10z"/>
<path d="M3005 3050 c-3 -5 -1 -10 4 -10 6 0 11 5 11 10 0 6 -2 10 -4 10 -3 0
-8 -4 -11 -10z"/>
<path d="M2897 3020 c-17 -11 -24 -20 -18 -24 6 -4 11 -1 11 6 1 8 6 6 15 -6
15 -19 15 -19 15 2 0 12 5 22 10 22 6 0 10 5 10 10 0 14 -10 12 -43 -10z"/>
<path d="M3103 3010 c1 -11 5 -20 9 -20 11 0 10 28 -1 35 -6 3 -9 -4 -8 -15z"/>
<path d="M2940 2630 c-13 -8 -12 -10 3 -10 9 0 17 5 17 10 0 12 -1 12 -20 0z"/>
<path d="M3020 2590 c-17 -13 -20 -20 -10 -20 9 0 23 9 33 20 21 25 9 25 -23
0z"/>
<path d="M3270 2595 c0 -28 16 -50 24 -36 4 6 0 21 -8 33 -15 21 -16 21 -16 3z"/>
<path d="M3240 2554 c0 -9 5 -14 12 -12 18 6 21 28 4 28 -9 0 -16 -7 -16 -16z"/>
<path d="M3456 2541 c-3 -5 -21 -8 -38 -7 -43 4 -58 -2 -51 -20 6 -16 43 -19
43 -4 0 6 8 10 18 10 20 0 64 29 45 30 -6 0 -14 -4 -17 -9z"/>
<path d="M2855 2390 c4 -6 13 -9 20 -6 7 2 18 -1 25 -7 10 -9 11 -9 8 3 -3 8
-17 16 -32 18 -19 2 -26 0 -21 -8z"/>
<path d="M3040 2090 c0 -5 4 -10 9 -10 6 0 13 5 16 10 3 6 -1 10 -9 10 -9 0
-16 -4 -16 -10z"/>
<path d="M3073 1924 c-3 -8 -1 -20 5 -26 7 -7 10 -2 9 16 -2 30 -5 32 -14 10z"/>
<path d="M3075 1840 c3 -5 8 -10 11 -10 2 0 4 5 4 10 0 6 -5 10 -11 10 -5 0
-7 -4 -4 -10z"/>
<path d="M3435 6095 c11 -9 29 -21 40 -26 l20 -10 -20 16 c-11 9 -29 21 -40
26 l-20 10 20 -16z"/>
<path d="M3451 5947 c2 -1 13 -9 24 -17 19 -14 19 -14 6 3 -7 9 -18 17 -24 17
-6 0 -8 -1 -6 -3z"/>
<path d="M3340 5936 c0 -2 11 -6 25 -8 13 -3 22 -1 19 3 -5 9 -44 13 -44 5z"/>
<path d="M3129 5913 c-13 -16 -12 -17 4 -4 16 13 21 21 13 21 -2 0 -10 -8 -17
-17z"/>
<path d="M4110 5607 c0 -2 15 -16 33 -33 l32 -29 -29 33 c-28 30 -36 37 -36
29z"/>
<path d="M2375 5579 c-4 -6 -5 -12 -2 -15 2 -3 7 2 10 11 7 17 1 20 -8 4z"/>
<path d="M4104 5571 c7 -11 46 -35 46 -28 0 3 -12 12 -26 22 -15 9 -23 12 -20
6z"/>
<path d="M4173 5525 c0 -8 4 -12 9 -9 5 3 6 10 3 15 -9 13 -12 11 -12 -6z"/>
<path d="M4210 5471 c0 -6 4 -13 10 -16 6 -3 7 1 4 9 -7 18 -14 21 -14 7z"/>
<path d="M1927 4917 c-3 -8 1 -14 8 -14 7 0 11 6 8 14 -3 7 -6 13 -8 13 -2 0
-5 -6 -8 -13z"/>
<path d="M1906 4875 c-9 -26 -7 -32 5 -12 6 10 9 21 6 23 -2 3 -7 -2 -11 -11z"/>
</g>
</svg>
